<svg viewBox="0 0 500 500"
  fill="none"
  xmlns="http://www.w3.org/2000/svg">
  <path
    d="M63.74 88.75L64.14 89.48C64.597 90.3277 65.2923 91.023 66.14 91.48L66.88 91.88L66.14 92.28C65.2948 92.7403 64.6003 93.4347 64.14 94.28L63.74 95.01L63.33 94.28C62.8744 93.4312 62.1788 92.7356 61.33 92.28L60.59 91.88L61.33 91.48C62.181 91.0274 62.8774 90.331 63.33 89.48L63.74 88.75ZM155.15 122.22L155.92 123.6C156.781 125.161 158.072 126.442 159.64 127.29L161.04 128.05L159.64 128.81C158.072 129.658 156.781 130.939 155.92 132.5L155.15 133.88L154.38 132.5C153.522 130.937 152.23 129.655 150.66 128.81L149.26 128.05L150.66 127.29C152.23 126.445 153.522 125.163 154.38 123.6L155.15 122.22V122.22ZM453.29 249.22L454.06 250.61C454.926 252.167 456.216 253.446 457.78 254.3L459.18 255.05L457.78 255.81C456.212 256.658 454.921 257.939 454.06 259.5L453.29 260.89L452.53 259.5C451.669 257.939 450.378 256.658 448.81 255.81L447.4 255.05L448.81 254.3C450.374 253.446 451.664 252.167 452.53 250.61L453.29 249.22V249.22ZM131.88 62.48L132.22 63.1C132.61 63.8 133.193 64.373 133.9 64.75L134.53 65.09L133.9 65.44C133.193 65.8172 132.61 66.39 132.22 67.09L131.88 67.71L131.54 67.09C131.15 66.39 130.567 65.8172 129.86 65.44L129.24 65.09L129.86 64.75C130.567 64.3728 131.15 63.8 131.54 63.1L131.88 62.48V62.48ZM392.1 219H441.05C441.05 219 436.72 211.12 424.12 212.27C412.12 213.36 411.47 208.39 405.35 207.78C399.23 207.17 394.14 211.9 392.1 219ZM331.49 102.84H427.16C427.16 102.84 418.7 87.45 394.07 89.69C370.55 91.83 369.36 82.12 357.4 80.92C345.44 79.72 335.48 88.89 331.49 102.84ZM60.63 134.85H115.51C115.51 134.85 110.65 126.02 96.51 127.31C83.02 128.54 82.33 122.96 75.51 122.31C68.69 121.66 62.92 126.85 60.63 134.85Z"
    fill="#E7E7E7" />
  <path
    d="M441.54 170.51C441.54 170.6 440.27 170.94 438.35 171.89C435.867 173.139 433.66 174.873 431.86 176.99L431.66 177.22L431.42 177.51L431.22 177.2C429.734 174.915 427.662 173.071 425.22 171.86C423.37 170.93 422.08 170.69 422.11 170.6C422.418 170.58 422.728 170.62 423.02 170.72C423.835 170.906 424.629 171.174 425.39 171.52C427.944 172.676 430.11 174.544 431.63 176.9H431.19L431.39 176.66C433.228 174.474 435.535 172.731 438.14 171.56C438.921 171.207 439.731 170.919 440.56 170.7C440.875 170.585 441.205 170.521 441.54 170.51V170.51ZM63.36 161.62C63.36 161.69 62.36 161.95 60.91 162.68C58.9947 163.63 57.2933 164.96 55.91 166.59L55.76 166.76L55.57 166.98L55.42 166.74C54.2945 164.998 52.7235 163.59 50.87 162.66C49.45 161.94 48.46 161.76 48.48 161.66C48.717 161.643 48.955 161.674 49.18 161.75C49.803 161.889 50.41 162.094 50.99 162.36C52.9483 163.247 54.6083 164.681 55.77 166.49H55.43L55.59 166.31C56.9976 164.635 58.7647 163.298 60.76 162.4C61.36 162.135 61.978 161.915 62.61 161.74C62.852 161.66 63.105 161.619 63.36 161.62V161.62ZM108.08 186.41C108.08 186.5 106.81 186.83 104.89 187.79C102.398 189.029 100.186 190.764 98.39 192.89L98.2 193.12L97.96 193.4L97.76 193.09C96.2719 190.809 94.2001 188.969 91.76 187.76C89.91 186.83 88.62 186.59 88.65 186.49C88.954 186.482 89.258 186.523 89.55 186.61C90.368 186.795 91.166 187.064 91.93 187.41C94.4845 188.57 96.6508 190.441 98.17 192.8H97.72L97.93 192.57C99.7679 190.384 102.075 188.641 104.68 187.47C105.462 187.115 106.271 186.824 107.1 186.6C107.411 186.474 107.744 186.409 108.08 186.41V186.41ZM300.78 50.2C300.78 50.29 299.51 50.63 297.6 51.58C295.11 52.8222 292.899 54.5573 291.1 56.68L290.9 56.91L290.66 57.2L290.46 56.88C288.989 54.6071 286.938 52.7673 284.52 51.55C282.66 50.62 281.37 50.38 281.4 50.28C281.708 50.272 282.015 50.313 282.31 50.4C283.125 50.589 283.92 50.86 284.68 51.21C287.236 52.3629 289.403 54.2316 290.92 56.59H290.48L290.68 56.35C292.518 54.1642 294.825 52.421 297.43 51.25C298.213 50.9 299.022 50.612 299.85 50.39C300.147 50.274 300.461 50.21 300.78 50.2V50.2Z"
    fill="#263238" />
  <path
    d="M420.42 137.63L420.62 137.99C420.849 138.414 421.196 138.761 421.62 138.99L421.98 139.19L421.62 139.39C421.193 139.614 420.844 139.963 420.62 140.39L420.42 140.75L420.22 140.39C419.991 139.966 419.644 139.619 419.22 139.39L418.86 139.19L419.22 138.99C419.641 138.757 419.987 138.411 420.22 137.99L420.42 137.63ZM59.61 239.4L59.81 239.76C60.0387 240.184 60.3863 240.531 60.81 240.76L61.17 240.96L60.81 241.16C60.39 241.393 60.043 241.739 59.81 242.16L59.61 242.52L59.41 242.16C59.1812 241.736 58.8337 241.389 58.41 241.16L58.04 240.96L58.41 240.76C58.837 240.536 59.1858 240.187 59.41 239.76L59.61 239.4ZM336 186.09L336.69 187.35C337.464 188.769 338.631 189.936 340.05 190.71L341.31 191.4L340.05 192.09C338.631 192.864 337.464 194.031 336.69 195.45L336 196.71L335.31 195.45C334.533 194.033 333.367 192.867 331.95 192.09L330.69 191.4L331.95 190.71C333.367 189.933 334.533 188.767 335.31 187.35L336 186.09ZM178.11 62.52L178.8 63.79C179.575 65.2063 180.741 66.3694 182.16 67.14L183.42 67.84L182.16 68.53C180.741 69.3005 179.575 70.4636 178.8 71.88L178.11 73.15L177.42 71.88C176.64 70.4676 175.475 69.3058 174.06 68.53L172.79 67.84L174.06 67.14C175.475 66.3642 176.64 65.2024 177.42 63.79L178.11 62.52V62.52Z"
    fill="#455A64" />
  <path
    d="M259.57 386.2C259.57 386.2 259.43 386.31 259.13 386.5L257.81 387.34C256.052 388.305 254.19 389.066 252.26 389.61C249.188 390.422 246.016 390.793 242.84 390.71C238.639 390.612 234.461 390.055 230.38 389.05C225.84 388.05 220.98 386.43 215.71 385C210.44 383.57 204.71 382.25 198.56 382.4C195.431 382.485 192.326 382.969 189.32 383.84C186.176 384.763 183.088 385.865 180.07 387.14C176.97 388.39 173.82 389.72 170.53 390.82C167.199 391.996 163.731 392.735 160.21 393.02C156.68 393.191 153.144 392.898 149.69 392.15C146.29 391.46 143 390.51 139.79 389.57C133.38 387.69 127.11 385.92 120.97 385.94C115.161 386.059 109.394 386.95 103.82 388.59C98.54 390.02 93.7 391.59 89.21 392.88C85.1911 394.077 81.0902 394.98 76.94 395.58C73.794 396.007 70.61 396.068 67.45 395.76C65.4596 395.542 63.4943 395.137 61.58 394.55L60.11 394C59.78 393.88 59.61 393.8 59.61 393.8C59.61 393.8 59.79 393.8 60.12 393.95L61.61 394.43C63.527 394.973 65.488 395.344 67.47 395.54C70.614 395.802 73.776 395.712 76.9 395.27C81.0304 394.637 85.1107 393.711 89.11 392.5C93.58 391.22 98.42 389.6 103.7 388.15C109.32 386.482 115.139 385.574 121 385.45C127.23 385.45 133.56 387.21 140 389.08C146.44 390.95 153.17 392.92 160.25 392.5C163.722 392.208 167.143 391.476 170.43 390.32C173.7 389.23 176.84 387.91 179.94 386.66C182.979 385.386 186.087 384.284 189.25 383.36C192.299 382.48 195.448 381.993 198.62 381.91C204.84 381.78 210.62 383.15 215.89 384.58C221.16 386.01 226.02 387.63 230.54 388.69C234.592 389.71 238.743 390.29 242.92 390.42C246.071 390.525 249.222 390.189 252.28 389.42C254.204 388.903 256.065 388.175 257.83 387.25L259.17 386.46L259.57 386.2ZM380.27 437.77L379.82 438.08L378.45 438.95C376.626 439.952 374.693 440.744 372.69 441.31C369.501 442.156 366.208 442.544 362.91 442.46C358.557 442.353 354.229 441.776 350 440.74C345.28 439.65 340.24 438.02 334.76 436.54C329.28 435.06 323.33 433.68 316.96 433.84C313.71 433.935 310.484 434.439 307.36 435.34C304.1 436.308 300.895 437.453 297.76 438.77C294.54 440.07 291.28 441.45 287.86 442.6C284.402 443.815 280.803 444.585 277.15 444.89C273.486 445.066 269.815 444.763 266.23 443.99C262.69 443.27 259.28 442.28 255.94 441.32C249.29 439.32 242.78 437.53 236.4 437.55C230.37 437.674 224.384 438.602 218.6 440.31C213.12 441.79 208.09 443.45 203.44 444.77C199.264 446.012 195.002 446.948 190.69 447.57C187.425 448.013 184.12 448.08 180.84 447.77C178.773 447.535 176.731 447.113 174.74 446.51L173.22 445.96L172.71 445.75L173.24 445.91L174.78 446.4C176.77 446.959 178.804 447.347 180.86 447.56C184.124 447.835 187.408 447.737 190.65 447.27C194.941 446.617 199.178 445.655 203.33 444.39C207.97 443.06 212.99 441.39 218.48 439.87C224.289 438.122 230.306 437.157 236.37 437C242.84 437 249.37 438.82 256.06 440.76C262.75 442.7 269.73 444.76 277.06 444.3C280.669 444.002 284.224 443.242 287.64 442.04C291.03 440.91 294.29 439.54 297.51 438.23C300.663 436.907 303.888 435.762 307.17 434.8C310.337 433.889 313.606 433.385 316.9 433.3C323.35 433.15 329.36 434.58 334.83 436.06C340.3 437.54 345.35 439.22 350.04 440.33C354.248 441.379 358.556 441.976 362.89 442.11C366.161 442.233 369.433 441.896 372.61 441.11C374.608 440.565 376.543 439.807 378.38 438.85L379.77 438.03C380.1 437.85 380.27 437.77 380.27 437.77V437.77Z"
    fill="#455A64" />
  <path
    d="M416.57 400.94L416.31 400.85L415.56 400.53C414.6 400.141 413.618 399.807 412.62 399.53C408.905 398.626 405.063 398.362 401.26 398.75C396.43 399.08 390.82 400.47 384.49 401.54C381.167 402.129 377.794 402.384 374.42 402.3C370.803 402.088 367.227 401.416 363.78 400.3C360.22 399.3 356.78 398.07 353.42 397.3C350.192 396.473 346.84 396.246 343.53 396.63C340.555 397.117 337.659 398.002 334.92 399.26C332.32 400.4 329.92 401.6 327.74 402.6C324.308 404.372 320.579 405.497 316.74 405.92C315.696 405.993 314.647 405.956 313.61 405.81L312.8 405.69C312.708 405.683 312.617 405.662 312.53 405.63H312.81L313.62 405.69C314.651 405.783 315.689 405.783 316.72 405.69C320.506 405.185 324.172 404.013 327.55 402.23C329.75 401.23 332.11 399.99 334.72 398.83C337.491 397.526 340.429 396.611 343.45 396.11C346.818 395.704 350.232 395.924 353.52 396.76C356.94 397.53 360.37 398.76 363.91 399.76C367.32 400.862 370.854 401.534 374.43 401.76C377.779 401.849 381.129 401.605 384.43 401.03C390.73 400.03 396.38 398.64 401.26 398.36C405.096 397.997 408.966 398.319 412.69 399.31C414.043 399.698 415.346 400.245 416.57 400.94V400.94ZM475.17 313C475.17 313.15 373.71 313.26 248.57 313.26C123.43 313.26 21.94 313.17 21.94 313C21.94 312.83 123.38 312.74 248.57 312.74C373.76 312.74 475.17 312.88 475.17 313Z"
    fill="#263238" />
  <path d="M235.41 99.54L26.03 312.65L156.21 312.61L235.41 126.21V99.54V99.54Z"
    fill="#FFC100" />
  <path opacity="0.8"
    d="M235.41 99.54L26.03 312.65L156.21 312.61L235.41 126.21V99.54V99.54Z"
    fill="white" />
  <path
    d="M184.13 349.69C203.65 350.61 223.56 351.59 241.73 357.07C248.81 359.2 255.88 362.07 263.49 361.87C274.92 361.58 284.77 354.48 296.2 354.73C306.34 354.95 314.87 360.9 324.93 361.87C336.8 363.01 347.75 357.09 359.55 355.56C376.2 353.4 394.02 361.03 409.84 356.16C416.14 354.22 409.23 350.97 403.59 350.83C403.59 350.83 382.71 350.55 377.07 346.46C371.43 342.37 367.07 341.89 363.79 340.93C360.51 339.97 355.2 342.09 355.2 342.09L290.2 342.93L241.36 339L197.8 341.48L184.13 349.69V349.69Z"
    fill="#EBEBEB" />
  <path d="M228.35 155.59L223.35 316.8L285.63 316.05L280.17 155.59H228.35V155.59Z"
    fill="#FFC100" />
  <path d="M284.43 148.56H223.35V155.59H284.43V148.56Z"
    fill="#455A64" />
  <path d="M235.41 148.56V99.08L252.06 91.83H256.07L273.02 99.54V148.56H235.41V148.56Z"
    fill="#FFC100" />
  <path d="M273.03 99.54H235.41V126.21H273.03V99.54Z"
    fill="#EBEBEB" />
  <path d="M252.06 91.83V86.44H255.76V91.83H252.68"
    fill="#FFC100" />
  <path opacity="0.4"
    d="M281.55 195.98H227.1L225.95 232.67H282.79L281.55 195.98V195.98Z"
    fill="white" />
  <path
    d="M277.75 148.56C277.718 148.365 277.702 148.168 277.7 147.97C277.7 147.53 277.7 146.97 277.65 146.26C277.65 144.71 277.65 142.57 277.57 139.92L277.75 140.11C271.9 140.11 263.39 140.19 253.93 140.19C244.47 140.19 235.93 140.19 230.1 140.11L230.29 139.92C230.29 142.57 230.23 144.71 230.21 146.26C230.21 146.96 230.21 147.53 230.16 147.97C230.166 148.168 230.146 148.367 230.1 148.56C230.085 148.364 230.085 148.166 230.1 147.97C230.1 147.53 230.1 146.97 230.05 146.26C230.05 144.71 230 142.57 229.97 139.92V139.74H230.15C236.01 139.68 244.52 139.65 253.98 139.65C263.44 139.65 271.98 139.65 277.8 139.74H277.99V139.92C277.99 142.57 277.93 144.71 277.91 146.26C277.91 146.96 277.91 147.53 277.86 147.97C277.85 148.171 277.813 148.369 277.75 148.56V148.56Z"
    fill="#263238" />
  <path
    d="M264.18 148.56C263.911 147.137 263.82 145.686 263.91 144.24C263.821 142.794 263.912 141.343 264.18 139.92C264.448 141.343 264.539 142.794 264.45 144.24C264.54 145.686 264.449 147.137 264.18 148.56V148.56ZM246.58 148.56C246.311 147.137 246.22 145.686 246.31 144.24C246.221 142.794 246.312 141.343 246.58 139.92C246.855 141.342 246.949 142.794 246.86 144.24C246.95 145.686 246.856 147.138 246.58 148.56V148.56ZM246.25 126.21C246.1 126.21 245.98 120.21 245.98 112.87C245.98 105.53 246.1 99.54 246.25 99.54C246.4 99.54 246.53 105.54 246.53 112.87C246.53 120.2 246.4 126.21 246.25 126.21ZM261 126.21C260.85 126.21 260.73 120.21 260.73 112.87C260.73 105.53 260.85 99.54 261 99.54C261.15 99.54 261.28 105.54 261.28 112.87C261.28 120.2 261.18 126.21 261 126.21Z"
    fill="#263238" />
  <path
    d="M273 112.94C272.515 113.03 272.023 113.07 271.53 113.06L267.53 113.18C264.12 113.25 259.42 113.32 254.23 113.34C249.04 113.36 244.33 113.34 240.92 113.27C239.08 113.328 237.239 113.217 235.42 112.94L254.22 112.79H271.52C272.017 112.791 272.513 112.841 273 112.94V112.94Z"
    fill="#263238" />
  <path opacity="0.4"
    d="M224.76 271.07H284.1L285.35 307.92L223.62 307.67L224.76 271.07V271.07Z"
    fill="white" />
  <path
    d="M227.66 182.59C228.744 182.446 229.837 182.386 230.93 182.41C232.93 182.41 235.84 182.33 239.08 182.32L238.81 182.59V178L239.08 178.26C235.84 178.26 232.98 178.26 230.93 178.17C229.837 178.187 228.745 178.131 227.66 178C228.744 177.856 229.837 177.796 230.93 177.82C232.93 177.82 235.84 177.74 239.08 177.73H239.35V182.87H239.08C235.84 182.87 232.98 182.87 230.93 182.78C229.837 182.801 228.744 182.737 227.66 182.59V182.59ZM258.34 133C258.275 132.613 258.245 132.222 258.25 131.83C258.25 131.04 258.17 129.83 258.15 128.41V128.22H258.35C261.24 128.17 265.29 128.14 269.77 128.14L270.05 128.42V133.26H269.79C266.42 133.26 263.53 133.19 261.51 133.14L259.16 133.07C258.895 133.074 258.63 133.051 258.37 133C258.671 132.957 258.975 132.933 259.28 132.93L261.68 132.86C263.68 132.81 266.54 132.75 269.79 132.74L269.53 133V128.4C269.47 128.34 270.05 128.91 269.8 128.67C265.32 128.67 261.27 128.67 258.38 128.59L258.57 128.4C258.57 129.77 258.5 130.9 258.47 131.7C258.44 132.5 258.36 133 258.34 133V133Z"
    fill="#263238" />
  <path
    d="M251.63 137.66C251.572 137.273 251.545 136.882 251.55 136.49C251.55 135.71 251.47 134.49 251.44 133.07V132.88H251.63C254.53 132.88 258.58 132.8 263.06 132.8L263.33 133.07V137.91H263.07C259.7 137.91 256.8 137.83 254.78 137.78L252.44 137.71C252.171 137.727 251.902 137.703 251.64 137.64C251.945 137.598 252.252 137.578 252.56 137.58L254.96 137.51C256.96 137.46 259.81 137.4 263.07 137.38L262.81 137.64V133.07L263.08 133.34C258.6 133.34 254.55 133.34 251.65 133.26L251.85 133.07C251.85 134.45 251.78 135.58 251.74 136.38C251.738 136.809 251.701 137.237 251.63 137.66V137.66ZM225 260.68C226.087 260.536 227.184 260.476 228.28 260.5C230.33 260.45 233.18 260.42 236.43 260.41L236.16 260.68V258.38V256.08L236.43 256.35C233.18 256.35 230.33 256.35 228.28 256.26C227.184 256.284 226.087 256.224 225 256.08C226.088 255.943 227.184 255.887 228.28 255.91C230.33 255.91 233.18 255.82 236.43 255.81H236.7V261H236.43C233.18 261 230.33 260.95 228.28 260.91C227.182 260.917 226.086 260.841 225 260.68V260.68ZM246.58 187.63C246.529 187.168 246.502 186.704 246.5 186.24C246.5 185.36 246.42 184.12 246.4 182.59L246.58 182.78C243.17 182.83 238.2 182.86 232.68 182.86L232.95 182.59V187.61L232.69 187.35C236.69 187.35 240.08 187.42 242.56 187.47L245.49 187.55C245.858 187.547 246.225 187.567 246.59 187.61C246.26 187.669 245.925 187.692 245.59 187.68L242.72 187.75C240.26 187.75 236.72 187.86 232.72 187.88H232.46V182.59C232.41 182.65 232.98 182.07 232.74 182.32C238.26 182.32 243.23 182.32 246.64 182.41H246.83V182.59C246.83 184.21 246.76 185.49 246.73 186.35C246.716 186.78 246.666 187.208 246.58 187.63V187.63ZM260.86 246.31C260.809 245.845 260.782 245.378 260.78 244.91C260.78 244.04 260.7 242.8 260.68 241.27L260.86 241.45C257.44 241.51 252.47 241.54 246.96 241.54L247.23 241.27V246.29L246.96 246.03C250.96 246.03 254.36 246.1 256.84 246.15L259.77 246.22C260.138 246.223 260.505 246.246 260.87 246.29C260.539 246.341 260.205 246.364 259.87 246.36L257 246.43C254.54 246.48 251 246.54 246.94 246.55H246.68V246.29V241.27L247 241C252.51 241 257.48 241 260.9 241.09H261.09V241.27C261.09 242.88 261.02 244.16 260.98 245.02C260.978 245.453 260.937 245.884 260.86 246.31Z"
    fill="#263238" />
  <path
    d="M242.73 265.72C242.679 265.255 242.652 264.788 242.65 264.32C242.65 263.45 242.57 262.21 242.55 260.68L242.73 260.86C239.32 260.92 234.35 260.95 228.83 260.95L229.1 260.68V265.7L228.84 265.44C232.84 265.44 236.23 265.51 238.71 265.56L241.64 265.63C242.008 265.633 242.375 265.656 242.74 265.7C242.409 265.751 242.075 265.775 241.74 265.77L238.87 265.84C236.41 265.89 232.87 265.95 228.87 265.96H228.61V260.7C228.55 260.76 229.13 260.18 228.89 260.43C234.41 260.43 239.38 260.43 242.79 260.51H242.98V260.69C242.98 262.3 242.91 263.59 242.88 264.44C242.865 264.87 242.815 265.298 242.73 265.72V265.72ZM276.29 291.77C276.231 291.306 276.201 290.838 276.2 290.37C276.2 289.5 276.13 288.26 276.1 286.73L276.29 286.91C272.87 286.97 267.9 287 262.38 287L262.65 286.73V291.75L262.39 291.49C266.39 291.49 269.79 291.56 272.27 291.61L275.19 291.68C275.561 291.683 275.932 291.706 276.3 291.75C275.969 291.8 275.635 291.823 275.3 291.82L272.44 291.89C269.97 291.89 266.44 292 262.38 292.01H262.12V291.75V286.73L262.39 286.46C267.91 286.46 272.88 286.46 276.3 286.54H276.48V286.72C276.48 288.33 276.41 289.62 276.38 290.48C276.382 290.912 276.352 291.343 276.29 291.77V291.77Z"
    fill="#263238" />
  <path
    d="M285.05 297C284.999 296.538 284.972 296.074 284.97 295.61C284.97 294.73 284.89 293.49 284.87 291.96L285.05 292.15C281.63 292.2 276.66 292.24 271.15 292.24C270.9 292.48 271.48 291.9 271.42 291.96V296.98L271.16 296.72C275.16 296.72 278.55 296.79 281.03 296.84L284 297C284.368 296.997 284.735 297.017 285.1 297.06C284.771 297.125 284.435 297.148 284.1 297.13L281.23 297.2C278.77 297.26 275.23 297.31 271.18 297.33H270.91V297V292L271.19 291.73C276.7 291.73 281.67 291.73 285.09 291.82H285.28V292C285.28 293.62 285.21 294.9 285.18 295.76C285.17 296.176 285.127 296.591 285.05 297ZM274.57 211.69C274.512 211.229 274.482 210.765 274.48 210.3C274.48 209.42 274.4 208.18 274.38 206.65L274.56 206.84C271.15 206.84 266.18 206.93 260.66 206.93L260.93 206.65V211.67L260.67 211.41C264.67 211.41 268.07 211.48 270.54 211.53L273.47 211.61C273.841 211.608 274.212 211.628 274.58 211.67C274.251 211.733 273.915 211.757 273.58 211.74L270.72 211.81C268.25 211.87 264.72 211.92 260.66 211.94H260.4V211.67V206.65C260.34 206.71 260.91 206.13 260.67 206.38C266.19 206.38 271.16 206.38 274.57 206.47H274.76V206.65C274.76 208.27 274.69 209.55 274.66 210.41C274.661 210.838 274.631 211.266 274.57 211.69Z"
    fill="#263238" />
  <path opacity="0.4"
    d="M228.35 155.59L264.18 163.67L266.85 316.05H285.63L280.17 155.59H228.35V155.59Z"
    fill="black" />
  <path
    d="M203 337.28C203 337.44 191 337.56 176.25 337.56C161.5 337.56 149.49 337.44 149.49 337.28C149.49 337.12 161.49 337.01 176.25 337.01C191.01 337.01 203 337.13 203 337.28ZM313.67 315.93C313.112 316.104 312.54 316.228 311.96 316.3L307.27 317.1C303.27 317.74 297.82 318.6 291.76 319.52L289.4 319.87L289.56 319.79L283.14 326.64L283.09 326.7H283L275.5 327.77L273.41 328.03C273.161 328.065 272.909 328.065 272.66 328.03C272.893 327.945 273.134 327.885 273.38 327.85L275.46 327.46L282.93 326.21L282.8 326.28L289.15 319.37L289.21 319.3H289.31L291.67 318.94C297.73 318.02 303.22 317.22 307.2 316.67L311.92 316.05C312.5 315.966 313.085 315.926 313.67 315.93V315.93Z"
    fill="#263238" />
  <path
    d="M170.7 324.82C172.146 324.138 173.772 323.938 175.34 324.25C176.194 324.316 177.001 324.669 177.63 325.25C177.926 325.557 178.092 325.968 178.092 326.395C178.092 326.822 177.926 327.232 177.63 327.54C177.207 327.826 176.697 327.953 176.19 327.9C174.96 327.9 173.6 327.67 172.62 328.41C172.06 328.83 171.69 329.53 171.02 329.74C170.686 329.816 170.336 329.782 170.022 329.644C169.709 329.505 169.448 329.269 169.28 328.97C168.959 328.354 168.888 327.638 169.08 326.97C169.168 326.512 169.36 326.08 169.641 325.707C169.922 325.334 170.284 325.031 170.7 324.82V324.82ZM167.46 318.57C167.662 318.81 167.913 319.004 168.197 319.14C168.48 319.275 168.788 319.349 169.102 319.356C169.416 319.364 169.728 319.306 170.017 319.184C170.307 319.062 170.567 318.88 170.78 318.65C171.491 317.824 171.977 316.829 172.19 315.76C172.87 313.39 173.56 310.89 173.05 308.47C172.934 307.729 172.612 307.036 172.12 306.47C171.873 306.194 171.559 305.988 171.209 305.87C170.858 305.753 170.483 305.729 170.12 305.8C169.714 305.967 169.348 306.217 169.045 306.533C168.742 306.85 168.509 307.227 168.36 307.64C167.247 309.97 166.663 312.518 166.65 315.1C166.567 316.305 166.849 317.508 167.46 318.55M165.09 320.34C165.535 319.761 165.831 319.082 165.953 318.362C166.075 317.642 166.019 316.903 165.79 316.21C165.315 314.829 164.471 313.605 163.35 312.67C162.071 311.531 160.584 310.652 158.97 310.08C158.335 309.828 157.653 309.716 156.97 309.75C156.633 309.77 156.306 309.872 156.017 310.046C155.728 310.22 155.485 310.462 155.31 310.75C155.157 311.221 155.119 311.722 155.199 312.211C155.279 312.7 155.475 313.162 155.77 313.56C156.615 315.092 157.578 316.557 158.65 317.94C159.438 319.113 160.53 320.05 161.81 320.65C163.13 321.16 164.49 321.1 165.19 320.19"
    fill="#FFC100" />
  <path
    d="M167.4 337.17C167.453 336.988 167.48 336.799 167.48 336.61L167.63 335.08C167.707 334.328 167.824 333.58 167.98 332.84C168.175 331.935 168.446 331.049 168.79 330.19C169.126 329.334 169.58 328.529 170.14 327.8C170.601 327.209 171.185 326.725 171.85 326.38C172.304 326.156 172.79 326.004 173.29 325.93C173.479 325.923 173.667 325.897 173.85 325.85C173.661 325.826 173.469 325.826 173.28 325.85C172.761 325.889 172.253 326.021 171.78 326.24C171.079 326.573 170.463 327.062 169.98 327.67C169.391 328.41 168.918 329.236 168.58 330.12C168.23 330.991 167.959 331.891 167.77 332.81C167.624 333.56 167.524 334.318 167.47 335.08C167.42 335.73 167.4 336.25 167.39 336.62C167.377 336.803 167.38 336.987 167.4 337.17V337.17Z"
    fill="#263238" />
  <path
    d="M167.51 336C167.521 335.914 167.521 335.826 167.51 335.74V335V332.27C167.56 329.97 167.76 327.48 168.14 323.99C168.51 320.7 169 316.87 169.51 314.38C169.62 313.81 169.73 313.3 169.84 312.86C169.95 312.42 170.02 312.02 170.1 311.71C170.18 311.4 170.23 311.18 170.28 310.99C170.29 310.904 170.29 310.816 170.28 310.73C170.24 310.809 170.21 310.893 170.19 310.98C170.13 311.16 170.06 311.4 169.98 311.69C169.9 311.98 169.78 312.38 169.67 312.83C169.56 313.28 169.43 313.78 169.31 314.34C168.671 317.285 168.194 320.263 167.88 323.26C167.49 326.76 167.32 329.96 167.3 332.26V335.74C167.353 335.839 167.424 335.927 167.51 336V336Z"
    fill="#263238" />
  <path
    d="M167.53 329.84C167.545 329.58 167.545 329.32 167.53 329.06C167.53 328.56 167.43 327.84 167.29 326.96C167.117 325.926 166.89 324.901 166.61 323.89C166.274 322.653 165.846 321.443 165.33 320.27C164.442 318.103 163.164 316.117 161.56 314.41C161.285 314.115 160.991 313.837 160.68 313.58C160.54 313.47 160.42 313.35 160.3 313.26L159.95 313.03C159.749 312.867 159.531 312.726 159.3 312.61C160.055 313.198 160.77 313.837 161.44 314.52C162.991 316.24 164.233 318.216 165.11 320.36C165.619 321.527 166.05 322.726 166.4 323.95C166.694 324.937 166.938 325.938 167.13 326.95C167.29 327.82 167.38 328.54 167.44 329.03C167.445 329.302 167.475 329.573 167.53 329.84V329.84ZM234.13 205.46H230.1V211.69H234.13V205.46ZM234.13 213.4H230.1V219.63H234.13V213.4Z"
    fill="#263238" />
  <path
    d="M303.15 303.7C303.2 302.12 304.59 300.92 305.98 300.17C307.37 299.42 308.98 298.84 309.92 297.6C311.5 295.6 311.14 292.26 313.25 290.81C314.49 289.96 316.25 290.06 317.4 289.1C317.966 288.546 318.424 287.892 318.75 287.17C320.723 283.627 323.61 280.678 327.11 278.63C326.295 282.068 324.568 285.222 322.11 287.76C321.04 288.686 320.128 289.78 319.41 291C318.41 293.07 319 295.66 317.85 297.64C316.52 299.9 313.31 300.73 312.45 303.2C311.72 305.29 313.02 307.7 312.27 309.78C311.89 310.646 311.315 311.413 310.59 312.02C308.15 314.27 305.19 315.44 301.59 314.32L297.07 313.17L303.15 303.7Z"
    fill="#FFC100" />
  <path opacity="0.3"
    d="M303.15 303.7C303.2 302.12 304.59 300.92 305.98 300.17C307.37 299.42 308.98 298.84 309.92 297.6C311.5 295.6 311.14 292.26 313.25 290.81C314.49 289.96 316.25 290.06 317.4 289.1C317.966 288.546 318.424 287.892 318.75 287.17C320.723 283.627 323.61 280.678 327.11 278.63C326.295 282.068 324.568 285.222 322.11 287.76C321.04 288.686 320.128 289.78 319.41 291C318.41 293.07 319 295.66 317.85 297.64C316.52 299.9 313.31 300.73 312.45 303.2C311.72 305.29 313.02 307.7 312.27 309.78C311.89 310.646 311.315 311.413 310.59 312.02C308.15 314.27 305.19 315.44 301.59 314.32L297.07 313.17L303.15 303.7Z"
    fill="black" />
  <path
    d="M296.13 313C295.701 312.956 295.285 312.834 294.9 312.64C293.753 312.138 292.757 311.345 292.01 310.34C291.753 309.98 291.594 309.56 291.55 309.12C291.538 308.641 291.596 308.163 291.72 307.7C292.069 306.739 292.132 305.696 291.9 304.7C291.446 303.556 291.176 302.348 291.1 301.12C291.261 299.744 291.689 298.412 292.36 297.2C293.085 295.923 293.468 294.479 293.47 293.01C293.4 291.49 292.78 289.94 292.75 288.19C292.72 286.44 293.46 284.77 293.84 283.06C294.056 282.207 294.104 281.321 293.98 280.45C293.85 279.56 293.56 278.67 293.41 277.71C293.237 275.749 293.386 273.773 293.85 271.86C294.02 270.86 294.19 269.86 294.36 268.91C294.578 267.925 294.692 266.919 294.7 265.91C294.668 264.882 294.578 263.857 294.43 262.84C294.359 262.303 294.329 261.761 294.34 261.22C294.412 260.682 294.512 260.148 294.64 259.62C295.236 257.535 296.022 255.51 296.99 253.57L297.07 253.4L297.22 253.04L297.5 253.3C299.075 254.907 299.982 257.051 300.04 259.3C300.126 261.402 300.019 263.508 299.72 265.59C299.448 267.556 299.536 269.555 299.98 271.49C300.47 273.33 301.53 275.14 301.27 277.18C301.01 279.22 299.44 280.56 299.18 282.26C298.92 283.96 299.56 285.62 300.05 287.2C300.675 288.743 300.845 290.433 300.54 292.07C300.2 293.63 299.54 295 299.28 296.37C299.016 297.69 299.016 299.05 299.28 300.37C299.49 301.62 299.8 302.79 300.02 303.91C300.274 304.946 300.355 306.017 300.26 307.08C300.144 307.971 299.898 308.84 299.53 309.66C299.058 310.814 298.276 311.814 297.27 312.55C296.921 312.806 296.523 312.986 296.1 313.08C296.485 312.901 296.856 312.694 297.21 312.46C298.161 311.706 298.893 310.712 299.33 309.58C299.678 308.757 299.904 307.888 300 307C300.084 305.965 299.989 304.923 299.72 303.92C299.49 302.82 299.17 301.65 298.94 300.38C298.649 299.027 298.629 297.631 298.88 296.27C299.16 294.84 299.79 293.46 300.1 291.97C300.374 290.403 300.197 288.79 299.59 287.32C299.33 286.53 299.04 285.72 298.83 284.86C298.584 283.978 298.533 283.054 298.68 282.15C299 280.26 300.52 278.88 300.75 277.1C300.98 275.32 299.98 273.53 299.44 271.61C298.98 269.613 298.886 267.55 299.16 265.52C299.453 263.467 299.557 261.392 299.47 259.32C299.413 257.216 298.567 255.21 297.1 253.7L297.54 253.6L297.47 253.78C296.506 255.702 295.726 257.711 295.14 259.78C295.017 260.278 294.92 260.782 294.85 261.29C294.836 261.798 294.866 262.307 294.94 262.81C295.092 263.847 295.179 264.892 295.2 265.94C295.196 266.976 295.079 268.009 294.85 269.02C294.68 270.02 294.51 271.02 294.34 271.97C293.88 273.826 293.725 275.744 293.88 277.65C294.02 278.56 294.3 279.46 294.43 280.39C294.562 281.324 294.511 282.275 294.28 283.19C293.86 284.96 293.15 286.57 293.17 288.19C293.19 289.81 293.79 291.38 293.86 292.99C293.851 294.524 293.445 296.03 292.68 297.36C292.022 298.528 291.594 299.811 291.42 301.14C291.483 302.333 291.736 303.507 292.17 304.62C292.315 305.171 292.353 305.745 292.28 306.31C292.198 306.817 292.085 307.318 291.94 307.81C291.817 308.243 291.753 308.69 291.75 309.14C291.795 309.544 291.936 309.931 292.16 310.27C292.872 311.256 293.816 312.049 294.91 312.58C295.305 312.753 295.713 312.894 296.13 313V313Z"
    fill="#263238" />
  <path
    d="M297.38 256.17C297.43 256.17 297.38 256.97 297.38 258.4C297.38 258.76 297.38 259.15 297.45 259.58C297.52 260.01 297.57 260.49 297.62 261.01C297.731 262.17 297.781 263.335 297.77 264.5C297.77 265.79 297.69 267.21 297.6 268.72C297.434 270.307 297.491 271.909 297.77 273.48C297.92 274.31 298.12 275.17 298.22 276.08C298.298 277.011 298.261 277.948 298.11 278.87C298.05 279.33 297.98 279.79 297.91 280.26C297.84 280.73 297.82 281.2 297.78 281.67C297.69 282.62 297.6 283.58 297.51 284.56C297.12 292.41 296.86 299.56 296.64 304.69C296.52 307.2 296.42 309.27 296.35 310.79C296.3 311.46 296.27 312 296.24 312.44C296.241 312.636 296.214 312.831 296.16 313.02C296.134 312.828 296.134 312.632 296.16 312.44V310.78C296.16 309.26 296.23 307.19 296.28 304.67C296.4 299.52 296.6 292.39 297 284.52C297.087 283.54 297.177 282.57 297.27 281.61C297.27 281.13 297.36 280.61 297.4 280.18L297.61 278.79C297.764 277.916 297.804 277.025 297.73 276.14C297.64 275.27 297.45 274.42 297.3 273.58C297.028 271.964 296.987 270.317 297.18 268.69C297.29 267.18 297.39 265.78 297.42 264.49C297.45 263.2 297.42 262.05 297.34 261.03C297.34 260.52 297.26 260.03 297.22 259.61C297.18 259.19 297.22 258.76 297.22 258.4C297.239 257.844 297.289 257.29 297.37 256.74C297.343 256.551 297.346 256.358 297.38 256.17V256.17Z"
    fill="#263238" />
  <path
    d="M295.34 312.8C292.92 310.21 293.62 304.69 295.77 301.88C297.92 299.07 300.89 296.78 302.21 293.49C303.21 290.96 303.15 288.04 304.5 285.68C306.32 282.48 310.45 280.8 311.44 277.26C311.99 275.26 311.44 273.08 312.08 271.13C312.89 268.74 315.32 267.36 317.08 265.56C319.8 262.8 321.08 258.97 322.72 255.48C324.36 251.99 326.94 248.48 330.72 247.61C330.29 250.87 330.48 253.24 329 257.38C328.46 258.87 325.86 261.25 324.65 264.5C323.93 266.45 323.25 268.41 322.55 270.36C321.955 272.29 321.075 274.12 319.94 275.79C319.01 277.02 317.79 278.03 316.94 279.35C315.41 281.82 315.53 285.02 314.14 287.57C312.96 289.73 310.78 291.25 309.77 293.5C308.35 296.66 309.48 300.7 307.48 303.5C306.48 304.9 304.84 305.78 304 307.28C303.36 308.44 303.28 309.85 302.66 311.03C301.66 312.93 297.35 313.38 295.33 312.65"
    fill="#FFC100" />
  <path
    d="M329 250.47C328.934 250.701 328.847 250.925 328.74 251.14C328.55 251.58 328.29 252.22 327.89 253.03C327.49 253.84 326.76 254.7 326.08 255.76C325.278 256.951 324.537 258.183 323.86 259.45C323.09 260.86 322.33 262.45 321.52 264.14C320.725 266.005 319.671 267.749 318.39 269.32C317.7 270.14 316.97 270.94 316.34 271.83C315.711 272.763 315.2 273.771 314.82 274.83L314.19 276.45L313.46 278.08L311.96 281.39C309.76 285.76 307.61 289.9 305.64 293.67L300.35 303.61L296.75 310.3L295.75 312.1C295.639 312.313 295.512 312.517 295.37 312.71C295.44 312.481 295.533 312.259 295.65 312.05C295.89 311.58 296.19 310.96 296.57 310.2C297.41 308.54 298.57 306.2 300.02 303.43C301.47 300.66 303.26 297.18 305.21 293.43C307.16 289.68 309.21 285.51 311.48 281.15L312.97 277.86L313.7 276.26L314.33 274.63C314.734 273.548 315.272 272.52 315.93 271.57C316.59 270.65 317.33 269.84 318.01 269.04C319.275 267.505 320.322 265.802 321.12 263.98C321.95 262.29 322.73 260.71 323.53 259.31C324.231 258.043 324.998 256.815 325.83 255.63C326.55 254.57 327.29 253.75 327.72 252.97C328.15 252.19 328.41 251.6 328.65 251.14C328.741 250.904 328.859 250.68 329 250.47V250.47Z"
    fill="#263238" />
  <path
    d="M310.49 351.23C317.834 353.259 325.652 352.698 332.63 349.64C334.276 348.901 335.996 348.338 337.76 347.96C346.62 346.21 355.41 351.42 364.45 351.51C369.87 351.56 375.11 349.78 380.45 348.85C375.66 345.48 369.76 341.37 369.76 341.37L368.22 337.65L354.93 333.65L339.18 323.4L329.29 322L318.47 316.24L285.63 310.58H222.11L204.33 321.7L166 323.86L149.58 336.81L125.43 343.25L114.78 351.31C117.472 351.563 120.177 351.647 122.88 351.56C136.59 351.03 149.79 344.91 163.5 345.56C178.29 346.24 192.39 354.76 207.06 352.76C218.74 351.17 229.3 343.01 241.06 343.95C252 344.82 261.35 353.5 272.32 353.52C278.79 353.52 284.81 350.52 291.04 348.77C298.25 346.72 303.08 349.12 310.49 351.23V351.23Z"
    fill="#455A64" />
  <path
    d="M425.46 317.17C425.46 317.29 416.91 317.39 406.36 317.39C395.81 317.39 387.26 317.29 387.26 317.17C387.26 317.05 395.81 316.95 406.36 316.95C416.91 316.95 425.46 317.05 425.46 317.17ZM419.55 321.52C419.55 321.65 414.07 321.75 407.31 321.75C400.55 321.75 395.07 321.65 395.07 321.52C395.07 321.39 400.55 321.3 407.31 321.3C414.07 321.3 419.55 321.4 419.55 321.52ZM409.58 326.21C408.337 326.503 407.043 326.503 405.8 326.21C407.043 325.917 408.337 325.917 409.58 326.21ZM416.39 303.66V292.4H407.28V286.29H404.72V292.7H403.38V286.35H401.13V292.35H387.21V294.19H389.14C389.07 295.19 389.02 297.19 389.02 299.46C389.02 301.05 389.02 302.46 389.08 303.56L379.32 303.61L387.92 313.13H423.35L430.11 303.61L416.39 303.66V303.66ZM389.39 294.24H393.77C393.7 295.24 393.65 297.24 393.65 299.51C393.65 301.09 393.65 302.51 393.71 303.58H389.45C389.45 302.5 389.51 301.07 389.51 299.48C389.49 297.23 389.44 295.25 389.37 294.24H389.39V294.24ZM399.39 303.56H394.04C394.04 302.49 394.1 301.07 394.1 299.49C394.1 297.21 394.05 295.23 393.97 294.22H399.39V303.56Z"
    fill="#455A64" />
</svg>
